<mxfile host="app.diagrams.net" modified="2024-02-19T04:32:56.234Z" agent="Mozilla/5.0 (Windows NT 10.0; Win64; x64) AppleWebKit/537.36 (KHTML, like Gecko) Chrome/121.0.0.0 Safari/537.36" etag="3Ybf0DINIbepVpVyrjhg" version="23.1.5" type="device">
  <diagram name="Page-1" id="hGsk2TelK7N9O7MpCbgT">
    <mxGraphModel dx="3119" dy="2300" grid="1" gridSize="10" guides="1" tooltips="1" connect="1" arrows="1" fold="1" page="1" pageScale="1" pageWidth="850" pageHeight="1100" math="0" shadow="0">
      <root>
        <mxCell id="0" />
        <mxCell id="1" parent="0" />
        <mxCell id="RzAqjCS5bhyyjEhLVQBK-1" value="Librarian" style="rounded=0;whiteSpace=wrap;html=1;" parent="1" vertex="1">
          <mxGeometry x="110" y="110" width="120" height="60" as="geometry" />
        </mxCell>
        <mxCell id="RzAqjCS5bhyyjEhLVQBK-2" value="manages" style="rhombus;whiteSpace=wrap;html=1;" parent="1" vertex="1">
          <mxGeometry x="360" y="100" width="80" height="80" as="geometry" />
        </mxCell>
        <mxCell id="RzAqjCS5bhyyjEhLVQBK-3" value="Books" style="rounded=0;whiteSpace=wrap;html=1;" parent="1" vertex="1">
          <mxGeometry x="570" y="110" width="120" height="60" as="geometry" />
        </mxCell>
        <mxCell id="RzAqjCS5bhyyjEhLVQBK-4" value="issues" style="rhombus;whiteSpace=wrap;html=1;" parent="1" vertex="1">
          <mxGeometry x="100" y="330" width="80" height="80" as="geometry" />
        </mxCell>
        <mxCell id="RzAqjCS5bhyyjEhLVQBK-5" value="User" style="rounded=0;whiteSpace=wrap;html=1;" parent="1" vertex="1">
          <mxGeometry x="80" y="570" width="120" height="60" as="geometry" />
        </mxCell>
        <mxCell id="RzAqjCS5bhyyjEhLVQBK-7" value="" style="endArrow=none;html=1;rounded=0;exitX=0.5;exitY=1;exitDx=0;exitDy=0;entryX=0.5;entryY=0;entryDx=0;entryDy=0;" parent="1" source="RzAqjCS5bhyyjEhLVQBK-1" target="RzAqjCS5bhyyjEhLVQBK-4" edge="1">
          <mxGeometry width="50" height="50" relative="1" as="geometry">
            <mxPoint x="380" y="290" as="sourcePoint" />
            <mxPoint x="430" y="240" as="targetPoint" />
            <Array as="points">
              <mxPoint x="140" y="170" />
            </Array>
          </mxGeometry>
        </mxCell>
        <mxCell id="RzAqjCS5bhyyjEhLVQBK-8" value="" style="endArrow=none;html=1;rounded=0;exitX=0.5;exitY=1;exitDx=0;exitDy=0;entryX=0.5;entryY=0;entryDx=0;entryDy=0;" parent="1" source="RzAqjCS5bhyyjEhLVQBK-4" edge="1">
          <mxGeometry width="50" height="50" relative="1" as="geometry">
            <mxPoint x="139.5" y="500" as="sourcePoint" />
            <mxPoint x="139.5" y="570" as="targetPoint" />
          </mxGeometry>
        </mxCell>
        <mxCell id="RzAqjCS5bhyyjEhLVQBK-9" value="" style="endArrow=none;html=1;rounded=0;exitX=1;exitY=0.25;exitDx=0;exitDy=0;entryX=0;entryY=0.25;entryDx=0;entryDy=0;" parent="1" source="RzAqjCS5bhyyjEhLVQBK-5" target="6aD6BWjMw6OknYp_RYOi-58" edge="1">
          <mxGeometry width="50" height="50" relative="1" as="geometry">
            <mxPoint x="380" y="290" as="sourcePoint" />
            <mxPoint x="400" y="310" as="targetPoint" />
          </mxGeometry>
        </mxCell>
        <mxCell id="RzAqjCS5bhyyjEhLVQBK-11" value="" style="endArrow=none;html=1;rounded=0;exitX=1;exitY=0.5;exitDx=0;exitDy=0;entryX=0;entryY=0.5;entryDx=0;entryDy=0;" parent="1" source="RzAqjCS5bhyyjEhLVQBK-1" target="RzAqjCS5bhyyjEhLVQBK-2" edge="1">
          <mxGeometry width="50" height="50" relative="1" as="geometry">
            <mxPoint x="380" y="290" as="sourcePoint" />
            <mxPoint x="430" y="240" as="targetPoint" />
          </mxGeometry>
        </mxCell>
        <mxCell id="RzAqjCS5bhyyjEhLVQBK-12" value="" style="endArrow=none;html=1;rounded=0;exitX=1;exitY=0.5;exitDx=0;exitDy=0;entryX=0;entryY=0.5;entryDx=0;entryDy=0;" parent="1" edge="1">
          <mxGeometry width="50" height="50" relative="1" as="geometry">
            <mxPoint x="440" y="139.5" as="sourcePoint" />
            <mxPoint x="570" y="139.5" as="targetPoint" />
          </mxGeometry>
        </mxCell>
        <mxCell id="RzAqjCS5bhyyjEhLVQBK-14" value="Salary" style="ellipse;whiteSpace=wrap;html=1;" parent="1" vertex="1">
          <mxGeometry x="260" y="10" width="90" height="50" as="geometry" />
        </mxCell>
        <mxCell id="RzAqjCS5bhyyjEhLVQBK-15" value="Name" style="ellipse;whiteSpace=wrap;html=1;" parent="1" vertex="1">
          <mxGeometry x="10" y="50" width="90" height="50" as="geometry" />
        </mxCell>
        <mxCell id="RzAqjCS5bhyyjEhLVQBK-16" value="Address" style="ellipse;whiteSpace=wrap;html=1;" parent="1" vertex="1">
          <mxGeometry x="50" y="-20" width="90" height="50" as="geometry" />
        </mxCell>
        <mxCell id="RzAqjCS5bhyyjEhLVQBK-17" value="Contact" style="ellipse;whiteSpace=wrap;html=1;" parent="1" vertex="1">
          <mxGeometry x="160" y="-20" width="90" height="50" as="geometry" />
        </mxCell>
        <mxCell id="RzAqjCS5bhyyjEhLVQBK-18" value="" style="endArrow=none;html=1;rounded=0;entryX=0;entryY=1;entryDx=0;entryDy=0;" parent="1" target="RzAqjCS5bhyyjEhLVQBK-14" edge="1">
          <mxGeometry width="50" height="50" relative="1" as="geometry">
            <mxPoint x="220" y="110" as="sourcePoint" />
            <mxPoint x="270" y="60" as="targetPoint" />
          </mxGeometry>
        </mxCell>
        <mxCell id="RzAqjCS5bhyyjEhLVQBK-19" value="" style="endArrow=none;html=1;rounded=0;entryX=0.5;entryY=1;entryDx=0;entryDy=0;" parent="1" target="RzAqjCS5bhyyjEhLVQBK-17" edge="1">
          <mxGeometry width="50" height="50" relative="1" as="geometry">
            <mxPoint x="200" y="110" as="sourcePoint" />
            <mxPoint x="250" y="60" as="targetPoint" />
          </mxGeometry>
        </mxCell>
        <mxCell id="RzAqjCS5bhyyjEhLVQBK-20" value="" style="endArrow=none;html=1;rounded=0;entryX=1;entryY=0.5;entryDx=0;entryDy=0;" parent="1" target="RzAqjCS5bhyyjEhLVQBK-15" edge="1">
          <mxGeometry width="50" height="50" relative="1" as="geometry">
            <mxPoint x="140" y="110" as="sourcePoint" />
            <mxPoint x="145" y="30" as="targetPoint" />
          </mxGeometry>
        </mxCell>
        <mxCell id="RzAqjCS5bhyyjEhLVQBK-21" value="" style="endArrow=none;html=1;rounded=0;entryX=1;entryY=1;entryDx=0;entryDy=0;" parent="1" target="RzAqjCS5bhyyjEhLVQBK-16" edge="1">
          <mxGeometry width="50" height="50" relative="1" as="geometry">
            <mxPoint x="167.5" y="110" as="sourcePoint" />
            <mxPoint x="172.5" y="30" as="targetPoint" />
          </mxGeometry>
        </mxCell>
        <mxCell id="RzAqjCS5bhyyjEhLVQBK-22" value="ISBN" style="ellipse;whiteSpace=wrap;html=1;" parent="1" vertex="1">
          <mxGeometry x="470" y="-40" width="90" height="50" as="geometry" />
        </mxCell>
        <mxCell id="RzAqjCS5bhyyjEhLVQBK-23" value="Category" style="ellipse;whiteSpace=wrap;html=1;" parent="1" vertex="1">
          <mxGeometry x="710" y="-64" width="90" height="50" as="geometry" />
        </mxCell>
        <mxCell id="RzAqjCS5bhyyjEhLVQBK-24" value="" style="endArrow=none;html=1;rounded=0;entryX=0.337;entryY=1;entryDx=0;entryDy=0;entryPerimeter=0;" parent="1" target="RzAqjCS5bhyyjEhLVQBK-29" edge="1">
          <mxGeometry width="50" height="50" relative="1" as="geometry">
            <mxPoint x="670" y="110" as="sourcePoint" />
            <mxPoint x="723" y="53" as="targetPoint" />
          </mxGeometry>
        </mxCell>
        <mxCell id="RzAqjCS5bhyyjEhLVQBK-25" value="" style="endArrow=none;html=1;rounded=0;entryX=0.5;entryY=1;entryDx=0;entryDy=0;" parent="1" target="RzAqjCS5bhyyjEhLVQBK-23" edge="1">
          <mxGeometry width="50" height="50" relative="1" as="geometry">
            <mxPoint x="650" y="110" as="sourcePoint" />
            <mxPoint x="700" y="60" as="targetPoint" />
          </mxGeometry>
        </mxCell>
        <mxCell id="RzAqjCS5bhyyjEhLVQBK-26" value="" style="endArrow=none;html=1;rounded=0;entryX=1;entryY=1;entryDx=0;entryDy=0;" parent="1" target="RzAqjCS5bhyyjEhLVQBK-28" edge="1">
          <mxGeometry width="50" height="50" relative="1" as="geometry">
            <mxPoint x="590" y="110" as="sourcePoint" />
            <mxPoint x="550" y="75" as="targetPoint" />
          </mxGeometry>
        </mxCell>
        <mxCell id="RzAqjCS5bhyyjEhLVQBK-27" value="" style="endArrow=none;html=1;rounded=0;entryX=1;entryY=1;entryDx=0;entryDy=0;" parent="1" target="RzAqjCS5bhyyjEhLVQBK-22" edge="1">
          <mxGeometry width="50" height="50" relative="1" as="geometry">
            <mxPoint x="617.5" y="110" as="sourcePoint" />
            <mxPoint x="622.5" y="30" as="targetPoint" />
          </mxGeometry>
        </mxCell>
        <mxCell id="RzAqjCS5bhyyjEhLVQBK-28" value="&lt;u&gt;BookID&lt;/u&gt;" style="ellipse;whiteSpace=wrap;html=1;" parent="1" vertex="1">
          <mxGeometry x="440" y="26" width="90" height="50" as="geometry" />
        </mxCell>
        <mxCell id="RzAqjCS5bhyyjEhLVQBK-29" value="&lt;font style=&quot;font-size: 13px;&quot;&gt;Title&lt;/font&gt;" style="ellipse;whiteSpace=wrap;html=1;" parent="1" vertex="1">
          <mxGeometry x="760" width="90" height="50" as="geometry" />
        </mxCell>
        <mxCell id="RzAqjCS5bhyyjEhLVQBK-31" value="&lt;u&gt;userID&lt;/u&gt;" style="ellipse;whiteSpace=wrap;html=1;" parent="1" vertex="1">
          <mxGeometry x="-70" y="710" width="90" height="50" as="geometry" />
        </mxCell>
        <mxCell id="RzAqjCS5bhyyjEhLVQBK-32" value="Name" style="ellipse;whiteSpace=wrap;html=1;" parent="1" vertex="1">
          <mxGeometry x="-90" y="630" width="90" height="50" as="geometry" />
        </mxCell>
        <mxCell id="RzAqjCS5bhyyjEhLVQBK-33" value="Address" style="ellipse;whiteSpace=wrap;html=1;" parent="1" vertex="1">
          <mxGeometry x="-90" y="550" width="90" height="50" as="geometry" />
        </mxCell>
        <mxCell id="RzAqjCS5bhyyjEhLVQBK-34" value="Contact" style="ellipse;whiteSpace=wrap;html=1;" parent="1" vertex="1">
          <mxGeometry x="40" y="745" width="90" height="50" as="geometry" />
        </mxCell>
        <mxCell id="RzAqjCS5bhyyjEhLVQBK-35" value="" style="endArrow=none;html=1;rounded=0;exitX=1;exitY=0.5;exitDx=0;exitDy=0;" parent="1" source="RzAqjCS5bhyyjEhLVQBK-33" edge="1">
          <mxGeometry width="50" height="50" relative="1" as="geometry">
            <mxPoint x="80" y="680" as="sourcePoint" />
            <mxPoint x="80" y="610" as="targetPoint" />
          </mxGeometry>
        </mxCell>
        <mxCell id="RzAqjCS5bhyyjEhLVQBK-36" value="" style="endArrow=none;html=1;rounded=0;entryX=0;entryY=1;entryDx=0;entryDy=0;exitX=1;exitY=0.5;exitDx=0;exitDy=0;" parent="1" source="RzAqjCS5bhyyjEhLVQBK-32" target="RzAqjCS5bhyyjEhLVQBK-5" edge="1">
          <mxGeometry width="50" height="50" relative="1" as="geometry">
            <mxPoint x="120" y="700" as="sourcePoint" />
            <mxPoint x="140" y="640" as="targetPoint" />
          </mxGeometry>
        </mxCell>
        <mxCell id="RzAqjCS5bhyyjEhLVQBK-37" value="" style="endArrow=none;html=1;rounded=0;exitX=0.5;exitY=0;exitDx=0;exitDy=0;entryX=0.25;entryY=1;entryDx=0;entryDy=0;" parent="1" source="RzAqjCS5bhyyjEhLVQBK-31" target="RzAqjCS5bhyyjEhLVQBK-5" edge="1">
          <mxGeometry width="50" height="50" relative="1" as="geometry">
            <mxPoint x="100" y="700" as="sourcePoint" />
            <mxPoint x="150" y="630" as="targetPoint" />
          </mxGeometry>
        </mxCell>
        <mxCell id="RzAqjCS5bhyyjEhLVQBK-38" value="" style="endArrow=none;html=1;rounded=0;exitX=0.378;exitY=1.011;exitDx=0;exitDy=0;entryX=0.5;entryY=0;entryDx=0;entryDy=0;exitPerimeter=0;" parent="1" source="RzAqjCS5bhyyjEhLVQBK-5" target="RzAqjCS5bhyyjEhLVQBK-34" edge="1">
          <mxGeometry width="50" height="50" relative="1" as="geometry">
            <mxPoint x="190" y="700" as="sourcePoint" />
            <mxPoint x="250" y="670" as="targetPoint" />
          </mxGeometry>
        </mxCell>
        <mxCell id="RzAqjCS5bhyyjEhLVQBK-39" value="" style="endArrow=none;html=1;rounded=0;entryX=0.5;entryY=1;entryDx=0;entryDy=0;exitX=0.5;exitY=0;exitDx=0;exitDy=0;" parent="1" source="RzAqjCS5bhyyjEhLVQBK-41" edge="1">
          <mxGeometry width="50" height="50" relative="1" as="geometry">
            <mxPoint x="614" y="775" as="sourcePoint" />
            <mxPoint x="518" y="633" as="targetPoint" />
          </mxGeometry>
        </mxCell>
        <mxCell id="RzAqjCS5bhyyjEhLVQBK-40" value="" style="endArrow=none;html=1;rounded=0;entryX=1;entryY=0.25;entryDx=0;entryDy=0;exitX=0;exitY=0.5;exitDx=0;exitDy=0;" parent="1" source="RzAqjCS5bhyyjEhLVQBK-42" target="6aD6BWjMw6OknYp_RYOi-58" edge="1">
          <mxGeometry width="50" height="50" relative="1" as="geometry">
            <mxPoint x="655" y="660" as="sourcePoint" />
            <mxPoint x="575" y="620" as="targetPoint" />
          </mxGeometry>
        </mxCell>
        <mxCell id="RzAqjCS5bhyyjEhLVQBK-41" value="Borrow_date" style="ellipse;whiteSpace=wrap;html=1;" parent="1" vertex="1">
          <mxGeometry x="405" y="680" width="90" height="50" as="geometry" />
        </mxCell>
        <mxCell id="RzAqjCS5bhyyjEhLVQBK-42" value="Return_date" style="ellipse;whiteSpace=wrap;html=1;" parent="1" vertex="1">
          <mxGeometry x="620" y="580" width="90" height="50" as="geometry" />
        </mxCell>
        <mxCell id="RzAqjCS5bhyyjEhLVQBK-43" value="1" style="text;html=1;strokeColor=none;fillColor=none;align=center;verticalAlign=middle;whiteSpace=wrap;rounded=0;" parent="1" vertex="1">
          <mxGeometry x="240" y="100" width="60" height="30" as="geometry" />
        </mxCell>
        <mxCell id="RzAqjCS5bhyyjEhLVQBK-44" value="M" style="text;html=1;strokeColor=none;fillColor=none;align=center;verticalAlign=middle;whiteSpace=wrap;rounded=0;" parent="1" vertex="1">
          <mxGeometry x="485" y="110" width="60" height="30" as="geometry" />
        </mxCell>
        <mxCell id="RzAqjCS5bhyyjEhLVQBK-45" value="1" style="text;html=1;strokeColor=none;fillColor=none;align=center;verticalAlign=middle;whiteSpace=wrap;rounded=0;" parent="1" vertex="1">
          <mxGeometry x="100" y="170" width="60" height="30" as="geometry" />
        </mxCell>
        <mxCell id="RzAqjCS5bhyyjEhLVQBK-46" value="M" style="text;html=1;strokeColor=none;fillColor=none;align=center;verticalAlign=middle;whiteSpace=wrap;rounded=0;" parent="1" vertex="1">
          <mxGeometry x="80" y="540" width="60" height="30" as="geometry" />
        </mxCell>
        <mxCell id="6aD6BWjMw6OknYp_RYOi-1" value="&lt;u&gt;AdminID&lt;/u&gt;" style="ellipse;whiteSpace=wrap;html=1;" parent="1" vertex="1">
          <mxGeometry x="-60" y="120" width="90" height="50" as="geometry" />
        </mxCell>
        <mxCell id="6aD6BWjMw6OknYp_RYOi-2" value="" style="endArrow=none;html=1;rounded=0;entryX=0;entryY=0.5;entryDx=0;entryDy=0;" parent="1" target="RzAqjCS5bhyyjEhLVQBK-1" edge="1">
          <mxGeometry width="50" height="50" relative="1" as="geometry">
            <mxPoint x="30" y="150" as="sourcePoint" />
            <mxPoint x="80" y="100" as="targetPoint" />
          </mxGeometry>
        </mxCell>
        <mxCell id="6aD6BWjMw6OknYp_RYOi-3" value="Address" style="ellipse;whiteSpace=wrap;html=1;" parent="1" vertex="1">
          <mxGeometry x="-50" y="470" width="90" height="50" as="geometry" />
        </mxCell>
        <mxCell id="6aD6BWjMw6OknYp_RYOi-4" value="" style="endArrow=none;html=1;rounded=0;entryX=0;entryY=0.5;entryDx=0;entryDy=0;exitX=1;exitY=1;exitDx=0;exitDy=0;" parent="1" source="6aD6BWjMw6OknYp_RYOi-3" target="RzAqjCS5bhyyjEhLVQBK-5" edge="1">
          <mxGeometry width="50" height="50" relative="1" as="geometry">
            <mxPoint x="10" y="615" as="sourcePoint" />
            <mxPoint x="60" y="565" as="targetPoint" />
          </mxGeometry>
        </mxCell>
        <mxCell id="6aD6BWjMw6OknYp_RYOi-11" value="" style="endArrow=none;html=1;rounded=0;exitX=0.5;exitY=1;exitDx=0;exitDy=0;" parent="1" source="RzAqjCS5bhyyjEhLVQBK-3" target="6aD6BWjMw6OknYp_RYOi-14" edge="1">
          <mxGeometry width="50" height="50" relative="1" as="geometry">
            <mxPoint x="700" y="260" as="sourcePoint" />
            <mxPoint x="720" y="260" as="targetPoint" />
          </mxGeometry>
        </mxCell>
        <mxCell id="6aD6BWjMw6OknYp_RYOi-12" value="has" style="rhombus;whiteSpace=wrap;html=1;" parent="1" vertex="1">
          <mxGeometry x="875" y="60" width="80" height="80" as="geometry" />
        </mxCell>
        <mxCell id="6aD6BWjMw6OknYp_RYOi-13" value="" style="endArrow=none;html=1;rounded=0;exitX=1;exitY=0.75;exitDx=0;exitDy=0;entryX=0;entryY=0.5;entryDx=0;entryDy=0;" parent="1" source="RzAqjCS5bhyyjEhLVQBK-3" target="6aD6BWjMw6OknYp_RYOi-12" edge="1">
          <mxGeometry width="50" height="50" relative="1" as="geometry">
            <mxPoint x="810" y="180" as="sourcePoint" />
            <mxPoint x="870" y="170" as="targetPoint" />
          </mxGeometry>
        </mxCell>
        <mxCell id="6aD6BWjMw6OknYp_RYOi-14" value="has" style="rhombus;whiteSpace=wrap;html=1;" parent="1" vertex="1">
          <mxGeometry x="790" y="210" width="80" height="80" as="geometry" />
        </mxCell>
        <mxCell id="6aD6BWjMw6OknYp_RYOi-16" value="&lt;font style=&quot;font-size: 12px;&quot;&gt;Author&lt;/font&gt;" style="rounded=0;whiteSpace=wrap;html=1;" parent="1" vertex="1">
          <mxGeometry x="1135" y="-10" width="120" height="60" as="geometry" />
        </mxCell>
        <mxCell id="6aD6BWjMw6OknYp_RYOi-30" value="Publisher" style="rounded=0;whiteSpace=wrap;html=1;" parent="1" vertex="1">
          <mxGeometry x="1030" y="290" width="120" height="60" as="geometry" />
        </mxCell>
        <mxCell id="6aD6BWjMw6OknYp_RYOi-31" value="websiteURL" style="ellipse;whiteSpace=wrap;html=1;" parent="1" vertex="1">
          <mxGeometry x="1130" y="420" width="90" height="50" as="geometry" />
        </mxCell>
        <mxCell id="6aD6BWjMw6OknYp_RYOi-32" value="Name" style="ellipse;whiteSpace=wrap;html=1;" parent="1" vertex="1">
          <mxGeometry x="1020" y="425" width="90" height="50" as="geometry" />
        </mxCell>
        <mxCell id="6aD6BWjMw6OknYp_RYOi-33" value="Address" style="ellipse;whiteSpace=wrap;html=1;" parent="1" vertex="1">
          <mxGeometry x="940" y="375" width="90" height="50" as="geometry" />
        </mxCell>
        <mxCell id="6aD6BWjMw6OknYp_RYOi-34" value="Contact" style="ellipse;whiteSpace=wrap;html=1;" parent="1" vertex="1">
          <mxGeometry x="1190" y="370" width="90" height="50" as="geometry" />
        </mxCell>
        <mxCell id="6aD6BWjMw6OknYp_RYOi-35" value="" style="endArrow=none;html=1;rounded=0;" parent="1" edge="1">
          <mxGeometry width="50" height="50" relative="1" as="geometry">
            <mxPoint x="1030" y="400" as="sourcePoint" />
            <mxPoint x="1080" y="350" as="targetPoint" />
          </mxGeometry>
        </mxCell>
        <mxCell id="6aD6BWjMw6OknYp_RYOi-36" value="" style="endArrow=none;html=1;rounded=0;entryX=0.5;entryY=1;entryDx=0;entryDy=0;exitX=0.5;exitY=0;exitDx=0;exitDy=0;" parent="1" source="6aD6BWjMw6OknYp_RYOi-32" target="6aD6BWjMw6OknYp_RYOi-30" edge="1">
          <mxGeometry width="50" height="50" relative="1" as="geometry">
            <mxPoint x="1070" y="420" as="sourcePoint" />
            <mxPoint x="1090" y="360" as="targetPoint" />
          </mxGeometry>
        </mxCell>
        <mxCell id="6aD6BWjMw6OknYp_RYOi-37" value="" style="endArrow=none;html=1;rounded=0;exitX=0;exitY=0;exitDx=0;exitDy=0;" parent="1" source="6aD6BWjMw6OknYp_RYOi-31" edge="1">
          <mxGeometry width="50" height="50" relative="1" as="geometry">
            <mxPoint x="1050" y="420" as="sourcePoint" />
            <mxPoint x="1100" y="350" as="targetPoint" />
          </mxGeometry>
        </mxCell>
        <mxCell id="6aD6BWjMw6OknYp_RYOi-38" value="" style="endArrow=none;html=1;rounded=0;exitX=0.75;exitY=1;exitDx=0;exitDy=0;entryX=0;entryY=0;entryDx=0;entryDy=0;" parent="1" source="6aD6BWjMw6OknYp_RYOi-30" target="6aD6BWjMw6OknYp_RYOi-34" edge="1">
          <mxGeometry width="50" height="50" relative="1" as="geometry">
            <mxPoint x="1140" y="420" as="sourcePoint" />
            <mxPoint x="1200" y="390" as="targetPoint" />
          </mxGeometry>
        </mxCell>
        <mxCell id="6aD6BWjMw6OknYp_RYOi-41" value="&lt;u&gt;PublisherId&lt;/u&gt;" style="ellipse;whiteSpace=wrap;html=1;" parent="1" vertex="1">
          <mxGeometry x="870" y="310" width="90" height="50" as="geometry" />
        </mxCell>
        <mxCell id="6aD6BWjMw6OknYp_RYOi-42" value="" style="endArrow=none;html=1;rounded=0;entryX=0;entryY=0.5;entryDx=0;entryDy=0;" parent="1" target="6aD6BWjMw6OknYp_RYOi-30" edge="1">
          <mxGeometry width="50" height="50" relative="1" as="geometry">
            <mxPoint x="960" y="335" as="sourcePoint" />
            <mxPoint x="1010" y="285" as="targetPoint" />
          </mxGeometry>
        </mxCell>
        <mxCell id="6aD6BWjMw6OknYp_RYOi-43" value="" style="endArrow=none;html=1;rounded=0;exitX=1;exitY=1;exitDx=0;exitDy=0;entryX=0;entryY=0.25;entryDx=0;entryDy=0;" parent="1" source="6aD6BWjMw6OknYp_RYOi-14" target="6aD6BWjMw6OknYp_RYOi-30" edge="1">
          <mxGeometry width="50" height="50" relative="1" as="geometry">
            <mxPoint x="765" y="300" as="sourcePoint" />
            <mxPoint x="932" y="389.98" as="targetPoint" />
          </mxGeometry>
        </mxCell>
        <mxCell id="6aD6BWjMw6OknYp_RYOi-45" value="&lt;u&gt;AuthorId&lt;/u&gt;" style="ellipse;whiteSpace=wrap;html=1;" parent="1" vertex="1">
          <mxGeometry x="1080" y="-134" width="90" height="50" as="geometry" />
        </mxCell>
        <mxCell id="6aD6BWjMw6OknYp_RYOi-46" value="Name" style="ellipse;whiteSpace=wrap;html=1;" parent="1" vertex="1">
          <mxGeometry x="1180" y="-174" width="90" height="50" as="geometry" />
        </mxCell>
        <mxCell id="6aD6BWjMw6OknYp_RYOi-49" value="" style="endArrow=none;html=1;rounded=0;exitX=1;exitY=0.5;exitDx=0;exitDy=0;entryX=0;entryY=0.5;entryDx=0;entryDy=0;" parent="1" source="6aD6BWjMw6OknYp_RYOi-12" target="6aD6BWjMw6OknYp_RYOi-16" edge="1">
          <mxGeometry width="50" height="50" relative="1" as="geometry">
            <mxPoint x="1040" y="180" as="sourcePoint" />
            <mxPoint x="1090" y="130" as="targetPoint" />
          </mxGeometry>
        </mxCell>
        <mxCell id="6aD6BWjMw6OknYp_RYOi-52" value="Biography" style="ellipse;whiteSpace=wrap;html=1;" parent="1" vertex="1">
          <mxGeometry x="1260" y="-114" width="90" height="50" as="geometry" />
        </mxCell>
        <mxCell id="6aD6BWjMw6OknYp_RYOi-53" value="Nationality" style="ellipse;whiteSpace=wrap;html=1;" parent="1" vertex="1">
          <mxGeometry x="1330" y="-24" width="90" height="50" as="geometry" />
        </mxCell>
        <mxCell id="6aD6BWjMw6OknYp_RYOi-54" value="" style="endArrow=none;html=1;rounded=0;entryX=0.5;entryY=1;entryDx=0;entryDy=0;exitX=0.25;exitY=0;exitDx=0;exitDy=0;" parent="1" source="6aD6BWjMw6OknYp_RYOi-16" target="6aD6BWjMw6OknYp_RYOi-45" edge="1">
          <mxGeometry width="50" height="50" relative="1" as="geometry">
            <mxPoint x="1160" y="-14" as="sourcePoint" />
            <mxPoint x="1040" y="-54" as="targetPoint" />
          </mxGeometry>
        </mxCell>
        <mxCell id="6aD6BWjMw6OknYp_RYOi-55" value="" style="endArrow=none;html=1;rounded=0;entryX=0.374;entryY=1.044;entryDx=0;entryDy=0;entryPerimeter=0;exitX=0.5;exitY=0;exitDx=0;exitDy=0;" parent="1" source="6aD6BWjMw6OknYp_RYOi-16" target="6aD6BWjMw6OknYp_RYOi-46" edge="1">
          <mxGeometry width="50" height="50" relative="1" as="geometry">
            <mxPoint x="1175" y="-14" as="sourcePoint" />
            <mxPoint x="1135" y="-74" as="targetPoint" />
          </mxGeometry>
        </mxCell>
        <mxCell id="6aD6BWjMw6OknYp_RYOi-56" value="" style="endArrow=none;html=1;rounded=0;entryX=0;entryY=1;entryDx=0;entryDy=0;exitX=0.75;exitY=0;exitDx=0;exitDy=0;" parent="1" source="6aD6BWjMw6OknYp_RYOi-16" target="6aD6BWjMw6OknYp_RYOi-52" edge="1">
          <mxGeometry width="50" height="50" relative="1" as="geometry">
            <mxPoint x="1205" as="sourcePoint" />
            <mxPoint x="1224" y="-112" as="targetPoint" />
          </mxGeometry>
        </mxCell>
        <mxCell id="6aD6BWjMw6OknYp_RYOi-57" value="" style="endArrow=none;html=1;rounded=0;entryX=0;entryY=0.5;entryDx=0;entryDy=0;exitX=1;exitY=0.25;exitDx=0;exitDy=0;" parent="1" source="6aD6BWjMw6OknYp_RYOi-16" target="6aD6BWjMw6OknYp_RYOi-53" edge="1">
          <mxGeometry width="50" height="50" relative="1" as="geometry">
            <mxPoint x="1235" as="sourcePoint" />
            <mxPoint x="1283" y="-61" as="targetPoint" />
          </mxGeometry>
        </mxCell>
        <mxCell id="6aD6BWjMw6OknYp_RYOi-58" value="Transaction" style="rounded=0;whiteSpace=wrap;html=1;" parent="1" vertex="1">
          <mxGeometry x="465" y="570" width="120" height="60" as="geometry" />
        </mxCell>
        <mxCell id="6aD6BWjMw6OknYp_RYOi-60" value="&lt;u&gt;Transaction_Id&lt;/u&gt;" style="ellipse;whiteSpace=wrap;html=1;" parent="1" vertex="1">
          <mxGeometry x="435" y="750" width="110" height="50" as="geometry" />
        </mxCell>
        <mxCell id="6aD6BWjMw6OknYp_RYOi-63" value="" style="endArrow=none;html=1;rounded=0;entryX=0.5;entryY=1;entryDx=0;entryDy=0;" parent="1" source="6aD6BWjMw6OknYp_RYOi-60" target="6aD6BWjMw6OknYp_RYOi-58" edge="1">
          <mxGeometry width="50" height="50" relative="1" as="geometry">
            <mxPoint x="795" y="570" as="sourcePoint" />
            <mxPoint x="845" y="520" as="targetPoint" />
          </mxGeometry>
        </mxCell>
        <mxCell id="6aD6BWjMw6OknYp_RYOi-64" value="CopyId (FK)" style="ellipse;whiteSpace=wrap;html=1;" parent="1" vertex="1">
          <mxGeometry x="530" y="705" width="90" height="50" as="geometry" />
        </mxCell>
        <mxCell id="6aD6BWjMw6OknYp_RYOi-65" value="userID (FK)" style="ellipse;whiteSpace=wrap;html=1;" parent="1" vertex="1">
          <mxGeometry x="615" y="650" width="90" height="50" as="geometry" />
        </mxCell>
        <mxCell id="6aD6BWjMw6OknYp_RYOi-66" value="" style="endArrow=none;html=1;rounded=0;entryX=0.75;entryY=1;entryDx=0;entryDy=0;exitX=0.5;exitY=0;exitDx=0;exitDy=0;" parent="1" source="6aD6BWjMw6OknYp_RYOi-64" target="6aD6BWjMw6OknYp_RYOi-58" edge="1">
          <mxGeometry width="50" height="50" relative="1" as="geometry">
            <mxPoint x="585" y="690" as="sourcePoint" />
            <mxPoint x="845" y="520" as="targetPoint" />
          </mxGeometry>
        </mxCell>
        <mxCell id="6aD6BWjMw6OknYp_RYOi-70" style="edgeStyle=orthogonalEdgeStyle;rounded=0;orthogonalLoop=1;jettySize=auto;html=1;exitX=0.5;exitY=1;exitDx=0;exitDy=0;" parent="1" source="6aD6BWjMw6OknYp_RYOi-60" target="6aD6BWjMw6OknYp_RYOi-60" edge="1">
          <mxGeometry relative="1" as="geometry" />
        </mxCell>
        <mxCell id="6aD6BWjMw6OknYp_RYOi-71" value="" style="endArrow=none;html=1;rounded=0;exitX=1;exitY=0.75;exitDx=0;exitDy=0;" parent="1" source="6aD6BWjMw6OknYp_RYOi-58" target="6aD6BWjMw6OknYp_RYOi-65" edge="1">
          <mxGeometry width="50" height="50" relative="1" as="geometry">
            <mxPoint x="745" y="570" as="sourcePoint" />
            <mxPoint x="795" y="520" as="targetPoint" />
          </mxGeometry>
        </mxCell>
        <mxCell id="6aD6BWjMw6OknYp_RYOi-72" value="Review" style="rounded=0;whiteSpace=wrap;html=1;" parent="1" vertex="1">
          <mxGeometry x="868" y="840" width="120" height="60" as="geometry" />
        </mxCell>
        <mxCell id="6aD6BWjMw6OknYp_RYOi-73" value="BookId (FK)" style="ellipse;whiteSpace=wrap;html=1;" parent="1" vertex="1">
          <mxGeometry x="755" y="980" width="90" height="50" as="geometry" />
        </mxCell>
        <mxCell id="6aD6BWjMw6OknYp_RYOi-74" value="userID (FK)" style="ellipse;whiteSpace=wrap;html=1;" parent="1" vertex="1">
          <mxGeometry x="855" y="1020" width="90" height="50" as="geometry" />
        </mxCell>
        <mxCell id="6aD6BWjMw6OknYp_RYOi-75" value="Description" style="ellipse;whiteSpace=wrap;html=1;" parent="1" vertex="1">
          <mxGeometry x="965" y="1020" width="90" height="50" as="geometry" />
        </mxCell>
        <mxCell id="6aD6BWjMw6OknYp_RYOi-76" value="&lt;u&gt;ReviewId&lt;/u&gt;" style="ellipse;whiteSpace=wrap;html=1;" parent="1" vertex="1">
          <mxGeometry x="1045" y="960" width="90" height="50" as="geometry" />
        </mxCell>
        <mxCell id="6aD6BWjMw6OknYp_RYOi-77" value="" style="endArrow=none;html=1;rounded=0;entryX=0.25;entryY=1;entryDx=0;entryDy=0;exitX=0.5;exitY=0;exitDx=0;exitDy=0;" parent="1" source="6aD6BWjMw6OknYp_RYOi-73" target="6aD6BWjMw6OknYp_RYOi-72" edge="1">
          <mxGeometry width="50" height="50" relative="1" as="geometry">
            <mxPoint x="885" y="760" as="sourcePoint" />
            <mxPoint x="935" y="710" as="targetPoint" />
          </mxGeometry>
        </mxCell>
        <mxCell id="6aD6BWjMw6OknYp_RYOi-78" value="" style="endArrow=none;html=1;rounded=0;entryX=0.5;entryY=1;entryDx=0;entryDy=0;exitX=0.5;exitY=0;exitDx=0;exitDy=0;" parent="1" source="6aD6BWjMw6OknYp_RYOi-74" target="6aD6BWjMw6OknYp_RYOi-72" edge="1">
          <mxGeometry width="50" height="50" relative="1" as="geometry">
            <mxPoint x="885" y="710" as="sourcePoint" />
            <mxPoint x="935" y="660" as="targetPoint" />
          </mxGeometry>
        </mxCell>
        <mxCell id="6aD6BWjMw6OknYp_RYOi-79" value="" style="endArrow=none;html=1;rounded=0;entryX=0.75;entryY=1;entryDx=0;entryDy=0;exitX=0.341;exitY=0.013;exitDx=0;exitDy=0;exitPerimeter=0;" parent="1" source="6aD6BWjMw6OknYp_RYOi-75" target="6aD6BWjMw6OknYp_RYOi-72" edge="1">
          <mxGeometry width="50" height="50" relative="1" as="geometry">
            <mxPoint x="965" y="1020" as="sourcePoint" />
            <mxPoint x="963" y="900" as="targetPoint" />
          </mxGeometry>
        </mxCell>
        <mxCell id="6aD6BWjMw6OknYp_RYOi-80" value="" style="endArrow=none;html=1;rounded=0;entryX=1;entryY=0.75;entryDx=0;entryDy=0;exitX=0;exitY=0;exitDx=0;exitDy=0;" parent="1" source="6aD6BWjMw6OknYp_RYOi-76" target="6aD6BWjMw6OknYp_RYOi-72" edge="1">
          <mxGeometry width="50" height="50" relative="1" as="geometry">
            <mxPoint x="1006" y="1031" as="sourcePoint" />
            <mxPoint x="973" y="910" as="targetPoint" />
          </mxGeometry>
        </mxCell>
        <mxCell id="6aD6BWjMw6OknYp_RYOi-81" value="" style="endArrow=none;html=1;rounded=0;entryX=0.5;entryY=1;entryDx=0;entryDy=0;exitX=0.5;exitY=0;exitDx=0;exitDy=0;" parent="1" source="6aD6BWjMw6OknYp_RYOi-72" target="RzAqjCS5bhyyjEhLVQBK-3" edge="1">
          <mxGeometry width="50" height="50" relative="1" as="geometry">
            <mxPoint x="690" y="310" as="sourcePoint" />
            <mxPoint x="740" y="260" as="targetPoint" />
          </mxGeometry>
        </mxCell>
        <mxCell id="6aD6BWjMw6OknYp_RYOi-89" value="Copies" style="rounded=0;whiteSpace=wrap;html=1;" parent="1" vertex="1">
          <mxGeometry x="435" y="330" width="120" height="60" as="geometry" />
        </mxCell>
        <mxCell id="6aD6BWjMw6OknYp_RYOi-90" value="&lt;u&gt;CopyId&lt;/u&gt;" style="ellipse;whiteSpace=wrap;html=1;" parent="1" vertex="1">
          <mxGeometry x="300" y="270" width="90" height="50" as="geometry" />
        </mxCell>
        <mxCell id="6aD6BWjMw6OknYp_RYOi-91" value="BookId (FK)" style="ellipse;whiteSpace=wrap;html=1;" parent="1" vertex="1">
          <mxGeometry x="300" y="360" width="90" height="50" as="geometry" />
        </mxCell>
        <mxCell id="6aD6BWjMw6OknYp_RYOi-92" value="" style="endArrow=none;html=1;rounded=0;entryX=0;entryY=0.25;entryDx=0;entryDy=0;exitX=1;exitY=1;exitDx=0;exitDy=0;" parent="1" source="6aD6BWjMw6OknYp_RYOi-90" target="6aD6BWjMw6OknYp_RYOi-89" edge="1">
          <mxGeometry width="50" height="50" relative="1" as="geometry">
            <mxPoint x="540" y="490" as="sourcePoint" />
            <mxPoint x="590" y="440" as="targetPoint" />
          </mxGeometry>
        </mxCell>
        <mxCell id="6aD6BWjMw6OknYp_RYOi-93" value="" style="endArrow=none;html=1;rounded=0;entryX=0;entryY=0.5;entryDx=0;entryDy=0;exitX=1;exitY=0.5;exitDx=0;exitDy=0;" parent="1" source="6aD6BWjMw6OknYp_RYOi-91" target="6aD6BWjMw6OknYp_RYOi-89" edge="1">
          <mxGeometry width="50" height="50" relative="1" as="geometry">
            <mxPoint x="540" y="490" as="sourcePoint" />
            <mxPoint x="590" y="440" as="targetPoint" />
          </mxGeometry>
        </mxCell>
        <mxCell id="6aD6BWjMw6OknYp_RYOi-94" value="" style="endArrow=none;html=1;rounded=0;entryX=0.389;entryY=1.011;entryDx=0;entryDy=0;entryPerimeter=0;" parent="1" source="6aD6BWjMw6OknYp_RYOi-89" target="RzAqjCS5bhyyjEhLVQBK-3" edge="1">
          <mxGeometry width="50" height="50" relative="1" as="geometry">
            <mxPoint x="540" y="490" as="sourcePoint" />
            <mxPoint x="590" y="440" as="targetPoint" />
          </mxGeometry>
        </mxCell>
        <mxCell id="6aD6BWjMw6OknYp_RYOi-95" value="" style="endArrow=none;html=1;rounded=0;entryX=0.5;entryY=1;entryDx=0;entryDy=0;exitX=0.5;exitY=0;exitDx=0;exitDy=0;" parent="1" source="6aD6BWjMw6OknYp_RYOi-58" target="6aD6BWjMw6OknYp_RYOi-89" edge="1">
          <mxGeometry width="50" height="50" relative="1" as="geometry">
            <mxPoint x="540" y="490" as="sourcePoint" />
            <mxPoint x="590" y="440" as="targetPoint" />
          </mxGeometry>
        </mxCell>
        <mxCell id="6aD6BWjMw6OknYp_RYOi-96" value="" style="endArrow=none;html=1;rounded=0;exitX=0.5;exitY=1;exitDx=0;exitDy=0;entryX=0;entryY=0.5;entryDx=0;entryDy=0;" parent="1" source="RzAqjCS5bhyyjEhLVQBK-5" target="6aD6BWjMw6OknYp_RYOi-72" edge="1">
          <mxGeometry width="50" height="50" relative="1" as="geometry">
            <mxPoint x="800" y="470" as="sourcePoint" />
            <mxPoint x="850" y="420" as="targetPoint" />
            <Array as="points">
              <mxPoint x="240" y="860" />
            </Array>
          </mxGeometry>
        </mxCell>
        <mxCell id="qzR3Iai2hiL4gK3pXP3i-1" value="1" style="text;html=1;align=center;verticalAlign=middle;whiteSpace=wrap;rounded=0;" vertex="1" parent="1">
          <mxGeometry x="190" y="600" width="60" height="30" as="geometry" />
        </mxCell>
        <mxCell id="qzR3Iai2hiL4gK3pXP3i-2" value="M" style="text;html=1;align=center;verticalAlign=middle;whiteSpace=wrap;rounded=0;" vertex="1" parent="1">
          <mxGeometry x="420" y="600" width="60" height="30" as="geometry" />
        </mxCell>
        <mxCell id="qzR3Iai2hiL4gK3pXP3i-4" value="1" style="text;html=1;align=center;verticalAlign=middle;whiteSpace=wrap;rounded=0;" vertex="1" parent="1">
          <mxGeometry x="485" y="400" width="60" height="30" as="geometry" />
        </mxCell>
        <mxCell id="qzR3Iai2hiL4gK3pXP3i-5" value="M" style="text;html=1;align=center;verticalAlign=middle;whiteSpace=wrap;rounded=0;" vertex="1" parent="1">
          <mxGeometry x="525" y="540" width="60" height="30" as="geometry" />
        </mxCell>
        <mxCell id="qzR3Iai2hiL4gK3pXP3i-6" value="M" style="text;html=1;align=center;verticalAlign=middle;whiteSpace=wrap;rounded=0;" vertex="1" parent="1">
          <mxGeometry x="465" y="290" width="60" height="30" as="geometry" />
        </mxCell>
        <mxCell id="qzR3Iai2hiL4gK3pXP3i-7" value="1" style="text;html=1;align=center;verticalAlign=middle;whiteSpace=wrap;rounded=0;" vertex="1" parent="1">
          <mxGeometry x="555" y="170" width="60" height="30" as="geometry" />
        </mxCell>
        <mxCell id="qzR3Iai2hiL4gK3pXP3i-8" value="1" style="text;html=1;align=center;verticalAlign=middle;whiteSpace=wrap;rounded=0;" vertex="1" parent="1">
          <mxGeometry x="600" y="210" width="60" height="30" as="geometry" />
        </mxCell>
        <mxCell id="qzR3Iai2hiL4gK3pXP3i-9" value="M" style="text;html=1;align=center;verticalAlign=middle;whiteSpace=wrap;rounded=0;" vertex="1" parent="1">
          <mxGeometry x="860" y="800" width="60" height="30" as="geometry" />
        </mxCell>
        <mxCell id="qzR3Iai2hiL4gK3pXP3i-10" value="M" style="text;html=1;align=center;verticalAlign=middle;whiteSpace=wrap;rounded=0;" vertex="1" parent="1">
          <mxGeometry x="680" y="110" width="60" height="30" as="geometry" />
        </mxCell>
        <mxCell id="qzR3Iai2hiL4gK3pXP3i-11" value="1" style="text;html=1;align=center;verticalAlign=middle;whiteSpace=wrap;rounded=0;" vertex="1" parent="1">
          <mxGeometry x="1075" width="60" height="30" as="geometry" />
        </mxCell>
        <mxCell id="qzR3Iai2hiL4gK3pXP3i-12" value="M" style="text;html=1;align=center;verticalAlign=middle;whiteSpace=wrap;rounded=0;" vertex="1" parent="1">
          <mxGeometry x="680" y="170" width="60" height="30" as="geometry" />
        </mxCell>
        <mxCell id="qzR3Iai2hiL4gK3pXP3i-13" value="1" style="text;html=1;align=center;verticalAlign=middle;whiteSpace=wrap;rounded=0;" vertex="1" parent="1">
          <mxGeometry x="980" y="260" width="60" height="30" as="geometry" />
        </mxCell>
        <mxCell id="qzR3Iai2hiL4gK3pXP3i-14" value="1" style="text;html=1;align=center;verticalAlign=middle;whiteSpace=wrap;rounded=0;" vertex="1" parent="1">
          <mxGeometry x="150" y="640" width="60" height="30" as="geometry" />
        </mxCell>
        <mxCell id="qzR3Iai2hiL4gK3pXP3i-15" value="M" style="text;html=1;align=center;verticalAlign=middle;whiteSpace=wrap;rounded=0;" vertex="1" parent="1">
          <mxGeometry x="808" y="870" width="60" height="30" as="geometry" />
        </mxCell>
      </root>
    </mxGraphModel>
  </diagram>
</mxfile>
